<svg width="91" height="53" viewBox="0 0 91 53" fill="none" xmlns="http://www.w3.org/2000/svg">
<g filter="url(#filter0_d_3_332)">
<rect x="10.5863" y="8" width="70" height="33" rx="16.5" fill="white"/>
<rect x="10.5863" y="8" width="70" height="33" rx="16.5" fill="#DC0D0D" fill-opacity="0.15"/>
<rect x="11.0863" y="8.5" width="69" height="32" rx="16" stroke="#DC0D0D" stroke-opacity="0.5"/>
<rect x="22.5863" y="18.5" width="12" height="12" rx="6" fill="#DC0D0D"/>
<path d="M41.9281 19.1016H48.3676V20.5918H43.7054V23.2988H48.0258V24.7891H43.7054V27.4961H48.3949V29H41.9281V19.1016Z" fill="#DC0D0D"/>
<path d="M58.4304 29H56.6394V20.8379H56.5847L54.2742 22.3145V20.6875L56.7214 19.1016H58.4304V29ZM64.1524 29.1367C63.4551 29.1367 62.8307 29.0182 62.2793 28.7812C61.7279 28.5443 61.2949 28.2139 60.9805 27.79C60.666 27.3617 60.502 26.8717 60.4883 26.3203H62.2793C62.2975 26.5801 62.3887 26.8102 62.5527 27.0107C62.7214 27.2067 62.9447 27.3594 63.2227 27.4688C63.5007 27.5781 63.8106 27.6328 64.1524 27.6328C64.5124 27.6328 64.8337 27.5713 65.1162 27.4482C65.4033 27.3206 65.6266 27.1452 65.7861 26.9219C65.9457 26.6986 66.0254 26.4434 66.0254 26.1562C66.0254 25.86 65.9434 25.5957 65.7793 25.3633C65.6152 25.1309 65.3783 24.9508 65.0684 24.8232C64.7585 24.6911 64.3939 24.625 63.9746 24.625H63.086V23.2578H63.9746C64.321 23.2578 64.6286 23.1986 64.8975 23.0801C65.1709 22.957 65.3828 22.7861 65.5332 22.5674C65.6836 22.3441 65.7565 22.0911 65.752 21.8086C65.7565 21.5352 65.6927 21.2936 65.5606 21.084C65.433 20.8698 65.2484 20.7057 65.0069 20.5918C64.7653 20.4733 64.485 20.4141 64.166 20.4141C63.8561 20.4141 63.5667 20.471 63.2979 20.585C63.0335 20.6943 62.8194 20.8516 62.6553 21.0566C62.4958 21.2617 62.4115 21.4987 62.4024 21.7676H60.6934C60.707 21.2207 60.8666 20.7354 61.1719 20.3115C61.4818 19.8877 61.8988 19.5573 62.4229 19.3203C62.9515 19.0833 63.5371 18.9648 64.1797 18.9648C64.8314 18.9648 65.4079 19.0879 65.9092 19.334C66.4105 19.5755 66.7979 19.9059 67.0713 20.3252C67.3447 20.7445 67.4792 21.207 67.4746 21.7129C67.4792 22.0775 67.4063 22.4079 67.2559 22.7041C67.1055 23.0003 66.8936 23.2464 66.6201 23.4424C66.3467 23.6383 66.03 23.7728 65.6699 23.8457V23.9277C66.1302 23.9915 66.5244 24.1283 66.8526 24.3379C67.1807 24.543 67.4291 24.8096 67.5977 25.1377C67.7663 25.4658 67.8483 25.8372 67.8438 26.252C67.8483 26.7988 67.6911 27.2933 67.3721 27.7354C67.0576 28.1729 66.6179 28.5169 66.0527 28.7676C65.4922 29.0137 64.8587 29.1367 64.1524 29.1367Z" fill="#DC0D0D"/>
</g>
<defs>
<filter id="filter0_d_3_332" x="0.586304" y="0" width="90" height="53" filterUnits="userSpaceOnUse" color-interpolation-filters="sRGB">
<feFlood flood-opacity="0" result="BackgroundImageFix"/>
<feColorMatrix in="SourceAlpha" type="matrix" values="0 0 0 0 0 0 0 0 0 0 0 0 0 0 0 0 0 0 127 0" result="hardAlpha"/>
<feOffset dy="2"/>
<feGaussianBlur stdDeviation="5"/>
<feComposite in2="hardAlpha" operator="out"/>
<feColorMatrix type="matrix" values="0 0 0 0 0.103572 0 0 0 0 0.0914226 0 0 0 0 0.0914226 0 0 0 0.2 0"/>
<feBlend mode="multiply" in2="BackgroundImageFix" result="effect1_dropShadow_3_332"/>
<feBlend mode="normal" in="SourceGraphic" in2="effect1_dropShadow_3_332" result="shape"/>
</filter>
</defs>
</svg>
