<svg width="93" height="53" viewBox="0 0 93 53" fill="none" xmlns="http://www.w3.org/2000/svg">
<g filter="url(#filter0_d_3_330)">
<rect x="10.7588" y="8" width="72" height="33" rx="16.5" fill="white"/>
<rect x="10.7588" y="8" width="72" height="33" rx="16.5" fill="#FD7404" fill-opacity="0.15"/>
<rect x="11.2588" y="8.5" width="71" height="32" rx="16" stroke="#FD7404" stroke-opacity="0.5"/>
<rect x="22.7588" y="18.5" width="12" height="12" rx="6" fill="#FD7404"/>
<path d="M42.1709 19.1016H43.9482V23.2988H48.5557V19.1016H50.3467V29H48.5557V24.7891H43.9482V29H42.1709V19.1016Z" fill="#FD7404"/>
<path d="M60.6029 29H58.8119V20.8379H58.7572L56.4466 22.3145V20.6875L58.8939 19.1016H60.6029V29ZM66.3248 29.1367C65.6276 29.1367 65.0032 29.0182 64.4518 28.7812C63.9004 28.5443 63.4674 28.2139 63.153 27.79C62.8385 27.3617 62.6745 26.8717 62.6608 26.3203H64.4518C64.47 26.5801 64.5612 26.8102 64.7252 27.0107C64.8939 27.2067 65.1172 27.3594 65.3952 27.4688C65.6732 27.5781 65.983 27.6328 66.3248 27.6328C66.6849 27.6328 67.0062 27.5713 67.2887 27.4482C67.5758 27.3206 67.7991 27.1452 67.9586 26.9219C68.1181 26.6986 68.1979 26.4434 68.1979 26.1562C68.1979 25.86 68.1159 25.5957 67.9518 25.3633C67.7877 25.1309 67.5508 24.9508 67.2409 24.8232C66.931 24.6911 66.5664 24.625 66.1471 24.625H65.2584V23.2578H66.1471C66.4935 23.2578 66.8011 23.1986 67.07 23.0801C67.3434 22.957 67.5553 22.7861 67.7057 22.5674C67.8561 22.3441 67.929 22.0911 67.9245 21.8086C67.929 21.5352 67.8652 21.2936 67.733 21.084C67.6054 20.8698 67.4209 20.7057 67.1793 20.5918C66.9378 20.4733 66.6575 20.4141 66.3385 20.4141C66.0286 20.4141 65.7392 20.471 65.4704 20.585C65.206 20.6943 64.9918 20.8516 64.8278 21.0566C64.6683 21.2617 64.584 21.4987 64.5748 21.7676H62.8659C62.8795 21.2207 63.039 20.7354 63.3444 20.3115C63.6543 19.8877 64.0713 19.5573 64.5954 19.3203C65.124 19.0833 65.7096 18.9648 66.3522 18.9648C67.0039 18.9648 67.5804 19.0879 68.0817 19.334C68.583 19.5755 68.9704 19.9059 69.2438 20.3252C69.5172 20.7445 69.6517 21.207 69.6471 21.7129C69.6517 22.0775 69.5787 22.4079 69.4284 22.7041C69.278 23.0003 69.0661 23.2464 68.7926 23.4424C68.5192 23.6383 68.2024 23.7728 67.8424 23.8457V23.9277C68.3027 23.9915 68.6969 24.1283 69.025 24.3379C69.3532 24.543 69.6015 24.8096 69.7702 25.1377C69.9388 25.4658 70.0208 25.8372 70.0162 26.252C70.0208 26.7988 69.8636 27.2933 69.5446 27.7354C69.2301 28.1729 68.7903 28.5169 68.2252 28.7676C67.6647 29.0137 67.0312 29.1367 66.3248 29.1367Z" fill="#FD7404"/>
</g>
<defs>
<filter id="filter0_d_3_330" x="0.758789" y="0" width="92" height="53" filterUnits="userSpaceOnUse" color-interpolation-filters="sRGB">
<feFlood flood-opacity="0" result="BackgroundImageFix"/>
<feColorMatrix in="SourceAlpha" type="matrix" values="0 0 0 0 0 0 0 0 0 0 0 0 0 0 0 0 0 0 127 0" result="hardAlpha"/>
<feOffset dy="2"/>
<feGaussianBlur stdDeviation="5"/>
<feComposite in2="hardAlpha" operator="out"/>
<feColorMatrix type="matrix" values="0 0 0 0 0.103572 0 0 0 0 0.0914226 0 0 0 0 0.0914226 0 0 0 0.2 0"/>
<feBlend mode="multiply" in2="BackgroundImageFix" result="effect1_dropShadow_3_330"/>
<feBlend mode="normal" in="SourceGraphic" in2="effect1_dropShadow_3_330" result="shape"/>
</filter>
</defs>
</svg>
