<svg width="90" height="53" viewBox="0 0 90 53" fill="none" xmlns="http://www.w3.org/2000/svg">
<g filter="url(#filter0_d_3_333)">
<rect x="10.7588" y="8" width="69" height="33" rx="16.5" fill="white"/>
<rect x="10.7588" y="8" width="69" height="33" rx="16.5" fill="#39A909" fill-opacity="0.15"/>
<rect x="11.2588" y="8.5" width="68" height="32" rx="16" stroke="#39A909" stroke-opacity="0.5"/>
<rect x="22.7588" y="18.5" width="12" height="12" rx="6" fill="#39A909"/>
<path d="M41.8877 19.1016H43.665V27.4961H48.04V29H41.8877V19.1016Z" fill="#39A909"/>
<path d="M57.6029 29H55.8119V20.8379H55.7572L53.4466 22.3145V20.6875L55.8939 19.1016H57.6029V29ZM63.3248 29.1367C62.6276 29.1367 62.0032 29.0182 61.4518 28.7812C60.9004 28.5443 60.4674 28.2139 60.153 27.79C59.8385 27.3617 59.6745 26.8717 59.6608 26.3203H61.4518C61.47 26.5801 61.5612 26.8102 61.7252 27.0107C61.8939 27.2067 62.1172 27.3594 62.3952 27.4688C62.6732 27.5781 62.983 27.6328 63.3248 27.6328C63.6849 27.6328 64.0062 27.5713 64.2887 27.4482C64.5758 27.3206 64.7991 27.1452 64.9586 26.9219C65.1181 26.6986 65.1979 26.4434 65.1979 26.1562C65.1979 25.86 65.1159 25.5957 64.9518 25.3633C64.7877 25.1309 64.5508 24.9508 64.2409 24.8232C63.931 24.6911 63.5664 24.625 63.1471 24.625H62.2584V23.2578H63.1471C63.4935 23.2578 63.8011 23.1986 64.07 23.0801C64.3434 22.957 64.5553 22.7861 64.7057 22.5674C64.8561 22.3441 64.929 22.0911 64.9245 21.8086C64.929 21.5352 64.8652 21.2936 64.733 21.084C64.6054 20.8698 64.4209 20.7057 64.1793 20.5918C63.9378 20.4733 63.6575 20.4141 63.3385 20.4141C63.0286 20.4141 62.7392 20.471 62.4704 20.585C62.206 20.6943 61.9918 20.8516 61.8278 21.0566C61.6683 21.2617 61.584 21.4987 61.5748 21.7676H59.8659C59.8795 21.2207 60.039 20.7354 60.3444 20.3115C60.6543 19.8877 61.0713 19.5573 61.5954 19.3203C62.124 19.0833 62.7096 18.9648 63.3522 18.9648C64.0039 18.9648 64.5804 19.0879 65.0817 19.334C65.583 19.5755 65.9704 19.9059 66.2438 20.3252C66.5172 20.7445 66.6517 21.207 66.6471 21.7129C66.6517 22.0775 66.5787 22.4079 66.4284 22.7041C66.278 23.0003 66.0661 23.2464 65.7926 23.4424C65.5192 23.6383 65.2024 23.7728 64.8424 23.8457V23.9277C65.3027 23.9915 65.6969 24.1283 66.025 24.3379C66.3532 24.543 66.6015 24.8096 66.7702 25.1377C66.9388 25.4658 67.0208 25.8372 67.0162 26.252C67.0208 26.7988 66.8636 27.2933 66.5446 27.7354C66.2301 28.1729 65.7903 28.5169 65.2252 28.7676C64.6647 29.0137 64.0312 29.1367 63.3248 29.1367Z" fill="#39A909"/>
</g>
<defs>
<filter id="filter0_d_3_333" x="0.758789" y="0" width="89" height="53" filterUnits="userSpaceOnUse" color-interpolation-filters="sRGB">
<feFlood flood-opacity="0" result="BackgroundImageFix"/>
<feColorMatrix in="SourceAlpha" type="matrix" values="0 0 0 0 0 0 0 0 0 0 0 0 0 0 0 0 0 0 127 0" result="hardAlpha"/>
<feOffset dy="2"/>
<feGaussianBlur stdDeviation="5"/>
<feComposite in2="hardAlpha" operator="out"/>
<feColorMatrix type="matrix" values="0 0 0 0 0.103572 0 0 0 0 0.0914226 0 0 0 0 0.0914226 0 0 0 0.2 0"/>
<feBlend mode="multiply" in2="BackgroundImageFix" result="effect1_dropShadow_3_333"/>
<feBlend mode="normal" in="SourceGraphic" in2="effect1_dropShadow_3_333" result="shape"/>
</filter>
</defs>
</svg>
