<svg width="95" height="53" viewBox="0 0 95 53" fill="none" xmlns="http://www.w3.org/2000/svg">
<g filter="url(#filter0_d_3_331)">
<rect x="10.7588" y="8" width="74" height="33" rx="16.5" fill="white"/>
<rect x="10.7588" y="8" width="74" height="33" rx="16.5" fill="#F7BC0D" fill-opacity="0.15"/>
<rect x="11.2588" y="8.5" width="73" height="32" rx="16" stroke="#F7BC0D" stroke-opacity="0.5"/>
<rect x="22.7588" y="18.5" width="12" height="12" rx="6" fill="#F7BC0D"/>
<path d="M44.2578 19.1016L47.1973 26.293H47.3203L50.2598 19.1016H52.4473V29H50.7383V22.1914H50.6426L47.8945 28.9727H46.623L43.875 22.1641H43.793V29H42.0703V19.1016H44.2578Z" fill="#F7BC0D"/>
<path d="M62.6029 29H60.8119V20.8379H60.7572L58.4466 22.3145V20.6875L60.8939 19.1016H62.6029V29ZM68.3248 29.1367C67.6276 29.1367 67.0032 29.0182 66.4518 28.7812C65.9004 28.5443 65.4674 28.2139 65.153 27.79C64.8385 27.3617 64.6745 26.8717 64.6608 26.3203H66.4518C66.47 26.5801 66.5612 26.8102 66.7252 27.0107C66.8939 27.2067 67.1172 27.3594 67.3952 27.4688C67.6732 27.5781 67.983 27.6328 68.3248 27.6328C68.6849 27.6328 69.0062 27.5713 69.2887 27.4482C69.5758 27.3206 69.7991 27.1452 69.9586 26.9219C70.1181 26.6986 70.1979 26.4434 70.1979 26.1562C70.1979 25.86 70.1159 25.5957 69.9518 25.3633C69.7877 25.1309 69.5508 24.9508 69.2409 24.8232C68.931 24.6911 68.5664 24.625 68.1471 24.625H67.2584V23.2578H68.1471C68.4935 23.2578 68.8011 23.1986 69.07 23.0801C69.3434 22.957 69.5553 22.7861 69.7057 22.5674C69.8561 22.3441 69.929 22.0911 69.9245 21.8086C69.929 21.5352 69.8652 21.2936 69.733 21.084C69.6054 20.8698 69.4209 20.7057 69.1793 20.5918C68.9378 20.4733 68.6575 20.4141 68.3385 20.4141C68.0286 20.4141 67.7392 20.471 67.4704 20.585C67.206 20.6943 66.9918 20.8516 66.8278 21.0566C66.6683 21.2617 66.584 21.4987 66.5748 21.7676H64.8659C64.8795 21.2207 65.039 20.7354 65.3444 20.3115C65.6543 19.8877 66.0713 19.5573 66.5954 19.3203C67.124 19.0833 67.7096 18.9648 68.3522 18.9648C69.0039 18.9648 69.5804 19.0879 70.0817 19.334C70.583 19.5755 70.9704 19.9059 71.2438 20.3252C71.5172 20.7445 71.6517 21.207 71.6471 21.7129C71.6517 22.0775 71.5787 22.4079 71.4284 22.7041C71.278 23.0003 71.0661 23.2464 70.7926 23.4424C70.5192 23.6383 70.2024 23.7728 69.8424 23.8457V23.9277C70.3027 23.9915 70.6969 24.1283 71.025 24.3379C71.3532 24.543 71.6015 24.8096 71.7702 25.1377C71.9388 25.4658 72.0208 25.8372 72.0162 26.252C72.0208 26.7988 71.8636 27.2933 71.5446 27.7354C71.2301 28.1729 70.7903 28.5169 70.2252 28.7676C69.6647 29.0137 69.0312 29.1367 68.3248 29.1367Z" fill="#F7BC0D"/>
</g>
<defs>
<filter id="filter0_d_3_331" x="0.758789" y="0" width="94" height="53" filterUnits="userSpaceOnUse" color-interpolation-filters="sRGB">
<feFlood flood-opacity="0" result="BackgroundImageFix"/>
<feColorMatrix in="SourceAlpha" type="matrix" values="0 0 0 0 0 0 0 0 0 0 0 0 0 0 0 0 0 0 127 0" result="hardAlpha"/>
<feOffset dy="2"/>
<feGaussianBlur stdDeviation="5"/>
<feComposite in2="hardAlpha" operator="out"/>
<feColorMatrix type="matrix" values="0 0 0 0 0.103572 0 0 0 0 0.0914226 0 0 0 0 0.0914226 0 0 0 0.2 0"/>
<feBlend mode="multiply" in2="BackgroundImageFix" result="effect1_dropShadow_3_331"/>
<feBlend mode="normal" in="SourceGraphic" in2="effect1_dropShadow_3_331" result="shape"/>
</filter>
</defs>
</svg>
