<svg width="13" height="13" viewBox="0 0 13 13" fill="none" xmlns="http://www.w3.org/2000/svg">
<path d="M11.6361 0.5H2.30282C1.56948 0.5 0.976149 1.1 0.976149 1.83333L0.969482 11.1667C0.969482 11.9 1.56948 12.5 2.30282 12.5H11.6361C12.3695 12.5 12.9695 11.9 12.9695 11.1667V1.83333C12.9695 1.1 12.3695 0.5 11.6361 0.5ZM10.3028 7.83333H8.30282V9.83333C8.30282 10.2 8.00282 10.5 7.63615 10.5H6.30282C5.93615 10.5 5.63615 10.2 5.63615 9.83333V7.83333H3.63615C3.26948 7.83333 2.96948 7.53333 2.96948 7.16667V5.83333C2.96948 5.46667 3.26948 5.16667 3.63615 5.16667H5.63615V3.16667C5.63615 2.8 5.93615 2.5 6.30282 2.5H7.63615C8.00282 2.5 8.30282 2.8 8.30282 3.16667V5.16667H10.3028C10.6695 5.16667 10.9695 5.46667 10.9695 5.83333V7.16667C10.9695 7.53333 10.6695 7.83333 10.3028 7.83333Z" fill="#74ABFF"/>
</svg>
