<svg width="12" height="13" viewBox="0 0 12 13" fill="none" xmlns="http://www.w3.org/2000/svg">
<path d="M11.3197 4.08L10.653 2.92667C10.4663 2.60667 10.0597 2.5 9.73967 2.68L7.12634 4.19333V1.16667C7.12634 0.8 6.82634 0.5 6.45967 0.5H5.12634C4.75967 0.5 4.45967 0.8 4.45967 1.16667V4.19333L1.83967 2.68C1.51967 2.49333 1.113 2.60667 0.933004 2.92L0.266338 4.07333C0.0796709 4.39333 0.186338 4.80667 0.506338 4.98667L3.12634 6.5L0.506338 8.01333C0.186338 8.2 0.0796709 8.60667 0.259671 8.92667L0.926337 10.08C1.113 10.4 1.51967 10.5067 1.83967 10.3267L4.45967 8.80667V11.8333C4.45967 12.2 4.75967 12.5 5.12634 12.5H6.45967C6.82634 12.5 7.12634 12.2 7.12634 11.8333V8.80667L9.74634 10.32C10.0663 10.5067 10.473 10.3933 10.6597 10.0733L11.3263 8.92C11.513 8.6 11.3997 8.19333 11.0797 8.00667L8.45967 6.5L11.0797 4.98667C11.3997 4.80667 11.5063 4.39333 11.3197 4.08Z" fill="#DC0D0D"/>
</svg>
