<svg width="12" height="15" viewBox="0 0 12 15" fill="none" xmlns="http://www.w3.org/2000/svg">
<path d="M7.79759 7.81851L8.20195 9.57072C8.26613 9.8467 7.96447 10.0649 7.72057 9.91731L6.19301 8.99307L4.65903 9.91731C4.41513 10.0649 4.11347 9.8467 4.17765 9.57072L4.58842 7.82493L3.24057 6.66321C3.02235 6.47708 3.13788 6.12407 3.42029 6.09839L5.20458 5.94436L5.89776 4.30126C6.00688 4.03811 6.37914 4.03811 6.48825 4.30126L7.18143 5.93794L8.96573 6.09198C9.24814 6.11765 9.36367 6.47066 9.14544 6.65679L7.79759 7.81851ZM1.18029 2.60682C0.718166 2.81221 0.416504 3.27433 0.416504 3.78138V6.79799C0.416504 10.3602 2.88115 13.6913 6.19301 14.5C9.50487 13.6913 11.9695 10.3602 11.9695 6.79799V3.78138C11.9695 3.27433 11.6679 2.81221 11.2057 2.60682L6.71289 0.610716C6.37914 0.463095 6.00046 0.463095 5.67312 0.610716L1.18029 2.60682Z" fill="#0261F9"/>
</svg>
