<svg width="13" height="13" viewBox="0 0 13 13" fill="none" xmlns="http://www.w3.org/2000/svg">
<g clip-path="url(#clip0_56_375)">
<path d="M12.3482 8.42206L11.5656 7.54611C11.3281 7.28004 10.8826 7.44706 10.8826 7.80685V8.94366C10.8826 9.01563 10.824 9.07408 10.7521 9.07408C10.6803 9.07408 10.6217 9.01563 10.6217 8.94366V8.32563C10.6217 7.06653 9.72829 5.95979 8.48642 5.69153C8.1206 5.61243 7.86277 6.05052 8.11142 6.33362C8.65179 6.9376 8.68575 7.75346 8.11271 8.42206C6.5938 10.1156 8.07268 12.4999 10.2304 12.4999C11.7505 12.4999 12.9695 11.2926 12.9695 9.98711C12.9695 9.12719 12.3736 8.45046 12.3482 8.42206Z" fill="#39A909"/>
<path d="M9.78762 3.74522L6.65727 0.614871C6.50444 0.462035 6.2568 0.462035 6.10396 0.614871L2.97361 3.74522C2.7279 3.99096 2.90215 4.41316 3.25024 4.41316H4.10009L2.02901 6.48425C1.7833 6.72999 1.95755 7.1522 2.30565 7.1522H3.15549L1.08444 9.22327C0.838699 9.46901 1.01298 9.89121 1.3611 9.89121H5.14359V12.1085C5.14359 12.3247 5.31885 12.4998 5.53488 12.4998H7.10005C7.31825 12.4998 7.49134 12.3494 7.49134 12.0279C6.27976 10.6178 6.64424 8.88591 7.53008 7.89945C7.81998 7.56087 7.82354 7.18541 7.52804 6.85524C6.77357 5.99603 7.55455 4.68925 8.65172 4.92653C8.93888 4.98855 9.2097 5.0891 9.4643 5.21627L8.66112 4.41309H9.51096C9.8591 4.41314 10.0333 3.99091 9.78762 3.74522Z" fill="#39A909"/>
</g>
<defs>
<clipPath id="clip0_56_375">
<rect width="12" height="12" fill="white" transform="translate(0.969482 0.5)"/>
</clipPath>
</defs>
</svg>
