<svg width="53" height="54" viewBox="0 0 53 54" fill="none" xmlns="http://www.w3.org/2000/svg">
<g filter="url(#filter0_d_70_996)">
<rect x="10" y="8.55396" width="33" height="33" rx="16.5" fill="white"/>
<rect x="10.5" y="9.05396" width="32" height="32" rx="16" stroke="#AEA6A3" stroke-opacity="0.5"/>
<path d="M24.4531 23.2236C24.3626 23.2224 24.2729 23.2391 24.189 23.2728C24.1051 23.3065 24.0287 23.3566 23.9643 23.42C23.8999 23.4835 23.8488 23.5592 23.8139 23.6426C23.779 23.726 23.761 23.8155 23.761 23.906C23.761 23.9964 23.779 24.0859 23.8139 24.1693C23.8488 24.2527 23.8999 24.3284 23.9643 24.3919C24.0287 24.4554 24.1051 24.5054 24.189 24.5391C24.2729 24.5729 24.3626 24.5896 24.4531 24.5883H25.1354L25.1354 30.6892H24.4531C24.3626 30.6879 24.2729 30.7046 24.189 30.7384C24.1051 30.7721 24.0287 30.8221 23.9643 30.8856C23.8999 30.9491 23.8488 31.0248 23.8139 31.1082C23.779 31.1916 23.761 31.2811 23.761 31.3715C23.761 31.462 23.779 31.5515 23.8139 31.6349C23.8488 31.7183 23.8999 31.794 23.9643 31.8575C24.0287 31.9209 24.1051 31.971 24.189 32.0047C24.2729 32.0384 24.3626 32.0551 24.4531 32.0539H28.547C28.6374 32.0551 28.7272 32.0384 28.8111 32.0047C28.895 31.971 28.9713 31.9209 29.0357 31.8575C29.1001 31.794 29.1512 31.7183 29.1861 31.6349C29.221 31.5515 29.239 31.462 29.239 31.3715C29.239 31.2811 29.221 31.1916 29.1861 31.1082C29.1512 31.0248 29.1001 30.9491 29.0357 30.8856C28.9713 30.8221 28.895 30.7721 28.8111 30.7384C28.7272 30.7046 28.6374 30.6879 28.547 30.6892H27.8647L27.8646 23.906C27.8646 23.5293 27.559 23.2236 27.1823 23.2236H25.8177H24.4531Z" fill="#AEA6A3"/>
<path d="M24.4531 19.9493C24.4531 18.9024 25.3015 18.054 26.3484 18.054C27.3953 18.054 28.2437 18.9024 28.2437 19.9493C28.2437 20.9962 27.3953 21.8446 26.3484 21.8446C25.3015 21.8446 24.4531 20.9962 24.4531 19.9493Z" fill="#AEA6A3"/>
</g>
<defs>
<filter id="filter0_d_70_996" x="0" y="0.553955" width="53" height="53" filterUnits="userSpaceOnUse" color-interpolation-filters="sRGB">
<feFlood flood-opacity="0" result="BackgroundImageFix"/>
<feColorMatrix in="SourceAlpha" type="matrix" values="0 0 0 0 0 0 0 0 0 0 0 0 0 0 0 0 0 0 127 0" result="hardAlpha"/>
<feOffset dy="2"/>
<feGaussianBlur stdDeviation="5"/>
<feComposite in2="hardAlpha" operator="out"/>
<feColorMatrix type="matrix" values="0 0 0 0 0.103572 0 0 0 0 0.0914226 0 0 0 0 0.0914226 0 0 0 0.2 0"/>
<feBlend mode="multiply" in2="BackgroundImageFix" result="effect1_dropShadow_70_996"/>
<feBlend mode="normal" in="SourceGraphic" in2="effect1_dropShadow_70_996" result="shape"/>
</filter>
</defs>
</svg>
