<svg width="37" height="50" viewBox="0 0 37 50" fill="none" xmlns="http://www.w3.org/2000/svg">
<path d="M18.5006 1C27.7709 1.0003 35.2865 8.51583 35.2867 17.7862C35.2867 21.359 33.9427 24.4883 32.2661 27.3923C31.0113 29.5657 23.9238 41.8418 20.4369 47.8814C19.5755 49.3735 17.423 49.3726 16.5615 47.8804C13.0565 41.8091 5.91598 29.4405 4.73283 27.3912C3.15397 24.6566 1.71329 21.3584 1.71329 17.7862C1.71355 8.51565 9.22997 1 18.5006 1Z" fill="#39A909" stroke="white" stroke-width="2"/>
<g clip-path="url(#clip0_176_116)">
<path d="M20.9602 14.2452C22.0602 14.2452 22.9602 13.3452 22.9602 12.2452C22.9602 11.1452 22.0602 10.2452 20.9602 10.2452C19.8602 10.2452 18.9602 11.1452 18.9602 12.2452C18.9602 13.3452 19.8602 14.2452 20.9602 14.2452ZM17.7902 26.2452L18.3602 23.7452L20.4602 25.7452V30.7452C20.4602 31.2952 20.9102 31.7452 21.4602 31.7452C22.0102 31.7452 22.4602 31.2952 22.4602 30.7452V25.1052C22.4602 24.5552 22.2402 24.0352 21.8402 23.6552L20.3602 22.2452L20.9602 19.2452C22.0302 20.4852 23.5802 21.3752 25.3202 21.6552C25.9202 21.7452 26.4602 21.2652 26.4602 20.6552C26.4602 20.1652 26.1002 19.7552 25.6102 19.6752C24.0902 19.4252 22.8302 18.5252 22.1602 17.3452L21.1602 15.7452C20.7602 15.1452 20.1602 14.7452 19.4602 14.7452C19.1602 14.7452 18.9602 14.8452 18.6602 14.8452L14.6802 16.5252C13.9402 16.8452 13.4602 17.5652 13.4602 18.3752V20.7452C13.4602 21.2952 13.9102 21.7452 14.4602 21.7452C15.0102 21.7452 15.4602 21.2952 15.4602 20.7452V18.3452L17.2602 17.6452L15.6602 25.7452L11.7402 24.9452C11.2002 24.8352 10.6702 25.1852 10.5602 25.7252V25.7652C10.4502 26.3052 10.8002 26.8352 11.3402 26.9452L15.4502 27.7652C16.5102 27.9752 17.5502 27.3052 17.7902 26.2452Z" fill="white"/>
</g>
<defs>
<clipPath id="clip0_176_116">
<rect width="24" height="24" fill="white" transform="translate(6.50009 8.7652)"/>
</clipPath>
</defs>
</svg>
